<?xml version="1.0" encoding="iso-8859-1"?>
<!-- Generator: Adobe Illustrator 19.0.0, SVG Export Plug-In . SVG Version: 6.00 Build 0)  -->
<svg version="1.1" id="Layer_1" xmlns="http://www.w3.org/2000/svg" xmlns:xlink="http://www.w3.org/1999/xlink" x="0px" y="0px"
	 viewBox="0 0 512 512" style="enable-background:new 0 0 512 512;" xml:space="preserve">
<g>
	<g>
		<path d="M479.93,290.285L299.096,22.881C289.406,8.554,273.296,0,256,0s-33.406,8.554-43.096,22.881L32.07,290.285
			c-10.972,16.226-12.039,36.241-2.854,53.541c9.185,17.3,26.363,27.628,45.949,27.628h361.668
			c19.588,0,36.764-10.328,45.949-27.628C491.969,326.524,490.902,306.51,479.93,290.285z M464.766,334.26
			c-5.584,10.516-16.026,16.795-27.934,16.795H75.166c-11.908,0-22.349-6.279-27.934-16.795
			c-5.584-10.517-4.935-22.684,1.735-32.548L229.801,34.308c5.979-8.84,15.527-13.91,26.199-13.91c10.671,0,20.22,5.07,26.199,13.91
			l180.834,267.404C469.702,311.575,470.352,323.742,464.766,334.26z"/>
	</g>
</g>
<g>
	<g>
		<path d="M220.135,84.865c-4.665-3.161-11.006-1.942-14.166,2.72L195.8,102.591c-3.161,4.663-1.943,11.004,2.72,14.165
			c1.753,1.188,3.743,1.757,5.713,1.757c3.269,0,6.481-1.569,8.453-4.478l10.169-15.005
			C226.015,94.366,224.798,88.024,220.135,84.865z"/>
	</g>
</g>
<g>
	<g>
		<path d="M190.697,128.301c-4.663-3.16-11.005-1.941-14.165,2.721L54.401,311.24c-3.161,4.663-1.942,11.004,2.721,14.165
			c1.753,1.188,3.743,1.757,5.713,1.757c3.269,0,6.481-1.569,8.453-4.478l122.13-180.218
			C196.578,137.802,195.36,131.462,190.697,128.301z"/>
	</g>
</g>
<g>
	<g>
		<path d="M431.597,397.334H80.403c-31.613,0-57.333,25.719-57.333,57.333S48.79,512,80.403,512h351.193
			c31.613,0,57.333-25.719,57.333-57.333S463.21,397.334,431.597,397.334z M431.597,491.602H80.403
			c-20.366,0-36.934-16.57-36.934-36.935s16.569-36.934,36.934-36.934v0.001h351.193c20.366,0,36.934,16.569,36.934,36.934
			S451.962,491.602,431.597,491.602z"/>
	</g>
</g>
<g>
</g>
<g>
</g>
<g>
</g>
<g>
</g>
<g>
</g>
<g>
</g>
<g>
</g>
<g>
</g>
<g>
</g>
<g>
</g>
<g>
</g>
<g>
</g>
<g>
</g>
<g>
</g>
<g>
</g>
</svg>
