<svg fill="#228013" width="52" height="55" xmlns="http://www.w3.org/2000/svg" xmlns:xlink="http://www.w3.org/1999/xlink" xml:space="preserve" overflow="hidden"><defs><clipPath id="clip0"><rect x="2174" y="1193" width="52" height="55"/></clipPath><clipPath id="clip1"><path d="M2199.74 1201.82 2218.37 1219.93 2200.26 1238.57 2181.63 1220.46Z" fill-rule="evenodd" clip-rule="evenodd"/></clipPath><clipPath id="clip2"><path d="M2199.74 1201.82 2218.37 1219.93 2200.26 1238.57 2181.63 1220.46Z" fill-rule="evenodd" clip-rule="evenodd"/></clipPath><clipPath id="clip3"><path d="M2199.74 1201.82 2218.37 1219.93 2200.26 1238.57 2181.63 1220.46Z" fill-rule="evenodd" clip-rule="evenodd"/></clipPath></defs><g clip-path="url(#clip0)" transform="translate(-2174 -1193)"><g clip-path="url(#clip1)"><g clip-path="url(#clip2)"><g clip-path="url(#clip3)"><path d="M2201.48 1206.59 2201.65 1218.49 2213.51 1218.32C2213.94 1218.3 2214.36 1218.46 2214.68 1218.76 2215.37 1219.43 2215.38 1220.52 2214.71 1221.21 2214.42 1221.52 2214.01 1221.7 2213.58 1221.7L2201.66 1221.81 2201.84 1233.79C2201.85 1234.19 2201.7 1234.58 2201.44 1234.88 2200.77 1235.56 2199.67 1235.58 2198.99 1234.91 2198.65 1234.61 2198.46 1234.19 2198.46 1233.74L2198.35 1221.9 2186.47 1222.07C2186.04 1222.08 2185.63 1221.93 2185.32 1221.63 2184.63 1220.97 2184.62 1219.87 2185.28 1219.18 2185.58 1218.87 2185.99 1218.69 2186.42 1218.69L2198.33 1218.58 2198.16 1206.6C2198.15 1206.2 2198.3 1205.81 2198.56 1205.52 2199.23 1204.83 2200.33 1204.81 2201.01 1205.48 2201.31 1205.78 2201.48 1206.17 2201.48 1206.59Z"/></g></g></g></g></svg>